<svg width="75" height="76" viewBox="0 0 75 76" fill="none" xmlns="http://www.w3.org/2000/svg">
<g id="Awatar" filter="url(#filter0_d_416_1278)">
<g clip-path="url(#clip0_416_1278)">
<path d="M0 36.2114C0 16.6053 15.8939 0.711426 35.5 0.711426C55.1061 0.711426 71 16.6053 71 36.2114C71 55.8175 55.1061 71.7114 35.5 71.7114C15.8939 71.7114 0 55.8175 0 36.2114Z" fill="white"/>
<path id="Vector" d="M8.42816 58.2994C12.1699 55.4843 16.3518 53.2654 20.9739 51.6427C25.596 50.02 30.4381 49.2072 35.5004 49.2043C40.5627 49.2015 45.4049 50.0142 50.027 51.6427C54.6491 53.2712 58.831 55.4901 62.5727 58.2994C65.1406 55.3399 67.1405 51.9834 68.5727 48.2299C70.0048 44.4763 70.7194 40.4702 70.7164 36.2113C70.7164 26.611 67.2873 18.4355 60.429 11.6849C53.5706 4.93432 45.2611 1.56048 35.5004 1.56336C25.7397 1.56625 17.4302 4.94154 10.5719 11.6892C3.71362 18.4369 0.284469 26.611 0.284469 36.2113C0.284469 40.4702 1.00053 44.4763 2.43264 48.2299C3.86476 51.9834 5.86327 55.3399 8.42816 58.2994ZM35.5004 40.5424C31.1718 40.5424 27.5211 39.0814 24.5483 36.1594C21.5755 33.2374 20.0905 29.6456 20.0935 25.3839C20.0964 21.1222 21.5828 17.5303 24.5527 14.6083C27.5226 11.6864 31.1718 10.2254 35.5004 10.2254C39.8291 10.2254 43.4798 11.6878 46.4526 14.6127C49.4254 17.5375 50.9104 21.1279 50.9074 25.3839C50.9045 29.6398 49.4196 33.2316 46.4526 36.1594C43.4857 39.0871 39.8349 40.5481 35.5004 40.5424ZM35.5004 79.5213C29.411 79.5213 23.6884 78.3837 18.3327 76.1085C12.9769 73.8333 8.31811 70.7482 4.35632 66.8532C0.394519 62.9582 -2.74117 58.3745 -5.05075 53.1022C-7.36033 47.83 -8.51659 42.1997 -8.51953 36.2113C-8.52246 30.223 -7.3662 24.5927 -5.05075 19.3205C-2.7353 14.0482 0.400388 9.46455 4.35632 5.56954C8.31224 1.67453 12.971 -1.41059 18.3327 -3.68581C23.6943 -5.96102 29.4169 -7.09863 35.5004 -7.09863C41.584 -7.09863 47.3066 -5.96102 52.6682 -3.68581C58.0299 -1.41059 62.6887 1.67453 66.6446 5.56954C70.6005 9.46455 73.7377 14.0482 76.056 19.3205C78.3744 24.5927 79.5292 30.223 79.5204 36.2113C79.5116 42.1997 78.3554 47.83 76.0516 53.1022C73.7479 58.3745 70.6123 62.9582 66.6446 66.8532C62.6769 70.7482 58.0181 73.8347 52.6682 76.1128C47.3183 78.3909 41.5957 79.5271 35.5004 79.5213Z" fill="#1A1A1A"/>
</g>
<path d="M35.5 1.71143C54.5538 1.71143 70 17.1576 70 36.2114C70 55.2653 54.5538 70.7114 35.5 70.7114C16.4462 70.7114 1 55.2653 1 36.2114C1 17.1576 16.4462 1.71143 35.5 1.71143Z" stroke="black" stroke-width="2"/>
</g>
<defs>
<filter id="filter0_d_416_1278" x="0" y="0.711426" width="75" height="75" filterUnits="userSpaceOnUse" color-interpolation-filters="sRGB">
<feFlood flood-opacity="0" result="BackgroundImageFix"/>
<feColorMatrix in="SourceAlpha" type="matrix" values="0 0 0 0 0 0 0 0 0 0 0 0 0 0 0 0 0 0 127 0" result="hardAlpha"/>
<feOffset dx="4" dy="4"/>
<feComposite in2="hardAlpha" operator="out"/>
<feColorMatrix type="matrix" values="0 0 0 0 0 0 0 0 0 0 0 0 0 0 0 0 0 0 1 0"/>
<feBlend mode="normal" in2="BackgroundImageFix" result="effect1_dropShadow_416_1278"/>
<feBlend mode="normal" in="SourceGraphic" in2="effect1_dropShadow_416_1278" result="shape"/>
</filter>
<clipPath id="clip0_416_1278">
<path d="M0 36.2114C0 16.6053 15.8939 0.711426 35.5 0.711426C55.1061 0.711426 71 16.6053 71 36.2114C71 55.8175 55.1061 71.7114 35.5 71.7114C15.8939 71.7114 0 55.8175 0 36.2114Z" fill="white"/>
</clipPath>
</defs>
</svg>
