<svg width="24" height="24" viewBox="0 0 24 24" fill="none" xmlns="http://www.w3.org/2000/svg">
<path d="M5.3 13C6.15 12.05 7.146 11.3127 8.288 10.788C9.43 10.2633 10.634 10.0007 11.9 10C13.4167 10 14.8377 10.3627 16.163 11.088C17.4883 11.8133 18.5507 12.8257 19.35 14.125C19.5 14.3583 19.7043 14.521 19.963 14.613C20.2217 14.705 20.4757 14.684 20.725 14.55C20.9743 14.416 21.1453 14.2243 21.238 13.975C21.3307 13.7257 21.3097 13.484 21.175 13.25C20.1917 11.6167 18.8793 10.3333 17.238 9.4C15.5967 8.46667 13.8173 8 11.9 8C10.3833 8 8.946 8.3 7.588 8.9C6.23 9.5 5.034 10.35 4 11.45V9C4 8.71667 3.904 8.47934 3.712 8.288C3.52 8.09667 3.28267 8.00067 3 8C2.71733 7.99934 2.48 8.09534 2.288 8.288C2.096 8.48067 2 8.718 2 9L2 14C2 14.2833 2.096 14.521 2.288 14.713C2.48 14.905 2.71733 15.0007 3 15H8C8.28333 15 8.521 14.904 8.713 14.712C8.905 14.52 9.00067 14.2827 9 14C8.99933 13.7173 8.90333 13.48 8.712 13.288C8.52067 13.096 8.28333 13 8 13H5.3Z" fill="#1A1A1A"/>
</svg>
