<svg width="32" height="33" viewBox="0 0 32 33" fill="none" xmlns="http://www.w3.org/2000/svg">
<g id="chat-outline-rounded">
<path id="Vector" d="M8.8 25.5367L6.04 28.3386C5.66 28.7244 5.2248 28.8109 4.7344 28.5981C4.244 28.3853 3.9992 28.0044 4 27.4554V8.48139C4 7.81136 4.2352 7.23798 4.7056 6.76124C5.176 6.28451 5.7408 6.04573 6.4 6.04492H25.6C26.26 6.04492 26.8252 6.2837 27.2956 6.76124C27.766 7.23879 28.0008 7.81218 28 8.48139V23.1002C28 23.7703 27.7652 24.344 27.2956 24.8216C26.826 25.2991 26.2608 25.5375 25.6 25.5367H8.8ZM7.78 23.1002H25.6V8.48139H6.4V24.4707L7.78 23.1002ZM10 20.6638H17.2C17.54 20.6638 17.8252 20.5468 18.0556 20.3129C18.286 20.079 18.4008 19.7899 18.4 19.4455C18.3992 19.1012 18.284 18.812 18.0544 18.5781C17.8248 18.3442 17.54 18.2273 17.2 18.2273H10C9.66 18.2273 9.3752 18.3442 9.1456 18.5781C8.916 18.812 8.8008 19.1012 8.8 19.4455C8.7992 19.7899 8.9144 20.0794 9.1456 20.3141C9.3768 20.5488 9.6616 20.6654 10 20.6638ZM10 17.009H22C22.34 17.009 22.6252 16.8921 22.8556 16.6582C23.086 16.4243 23.2008 16.1352 23.2 15.7908C23.1992 15.4465 23.084 15.1573 22.8544 14.9234C22.6248 14.6895 22.34 14.5726 22 14.5726H10C9.66 14.5726 9.3752 14.6895 9.1456 14.9234C8.916 15.1573 8.8008 15.4465 8.8 15.7908C8.7992 16.1352 8.9144 16.4247 9.1456 16.6594C9.3768 16.8941 9.6616 17.0107 10 17.009ZM10 13.3543H22C22.34 13.3543 22.6252 13.2374 22.8556 13.0035C23.086 12.7696 23.2008 12.4805 23.2 12.1361C23.1992 11.7917 23.084 11.5026 22.8544 11.2687C22.6248 11.0348 22.34 10.9179 22 10.9179H10C9.66 10.9179 9.3752 11.0348 9.1456 11.2687C8.916 11.5026 8.8008 11.7917 8.8 12.1361C8.7992 12.4805 8.9144 12.77 9.1456 13.0047C9.3768 13.2394 9.6616 13.356 10 13.3543Z" fill="#1A1A1A"/>
</g>
</svg>
