<svg width="18" height="19" viewBox="0 0 18 19" fill="none" xmlns="http://www.w3.org/2000/svg">
<path d="M9 16.2498L7.9125 15.2748C6.65 14.1373 5.60625 13.1561 4.78125 12.3311C3.95625 11.5061 3.3 10.7653 2.8125 10.1088C2.325 9.45231 1.9845 8.8493 1.791 8.2998C1.5975 7.7503 1.5005 7.1878 1.5 6.6123C1.5 5.4373 1.89375 4.45605 2.68125 3.66855C3.46875 2.88105 4.45 2.4873 5.625 2.4873C6.275 2.4873 6.89375 2.6248 7.48125 2.8998C8.06875 3.1748 8.575 3.5623 9 4.0623C9.425 3.5623 9.93125 3.1748 10.5187 2.8998C11.1062 2.6248 11.725 2.4873 12.375 2.4873C13.55 2.4873 14.5312 2.88105 15.3187 3.66855C16.1062 4.45605 16.5 5.4373 16.5 6.6123C16.5 7.1873 16.4033 7.7498 16.2098 8.2998C16.0163 8.8498 15.6755 9.45281 15.1875 10.1088C14.6995 10.7648 14.0433 11.5056 13.2188 12.3311C12.3942 13.1566 11.3505 14.1378 10.0875 15.2748L9 16.2498Z" fill="#FF405F"/>
</svg>
