<svg width="32" height="32" viewBox="0 0 32 32" fill="none" xmlns="http://www.w3.org/2000/svg">
<g id="mark-unread-chat-alt-outline-rounded">
<path id="Vector" d="M10 19.8784H17.2C17.54 19.8784 17.8252 19.7604 18.0556 19.5244C18.286 19.2883 18.4008 18.9966 18.4 18.649C18.3992 18.3015 18.284 18.0097 18.0544 17.7737C17.8248 17.5377 17.54 17.4196 17.2 17.4196H10C9.66 17.4196 9.3752 17.5377 9.1456 17.7737C8.916 18.0097 8.8008 18.3015 8.8 18.649C8.7992 18.9966 8.9144 19.2887 9.1456 19.5256C9.3768 19.7625 9.6616 19.8801 10 19.8784ZM10 16.1902H22C22.34 16.1902 22.6252 16.0722 22.8556 15.8362C23.086 15.6001 23.2008 15.3083 23.2 14.9608C23.1992 14.6133 23.084 14.3215 22.8544 14.0855C22.6248 13.8494 22.34 13.7314 22 13.7314H10C9.66 13.7314 9.3752 13.8494 9.1456 14.0855C8.916 14.3215 8.8008 14.6133 8.8 14.9608C8.7992 15.3083 8.9144 15.6005 9.1456 15.8374C9.3768 16.0743 9.6616 16.1919 10 16.1902ZM10 12.502H19.6C19.94 12.502 20.2252 12.384 20.4556 12.1479C20.686 11.9119 20.8008 11.6201 20.8 11.2726C20.7992 10.9251 20.684 10.6333 20.4544 10.3973C20.2248 10.1612 19.94 10.0432 19.6 10.0432H10C9.66 10.0432 9.3752 10.1612 9.1456 10.3973C8.916 10.6333 8.8008 10.9251 8.8 11.2726C8.7992 11.6201 8.9144 11.9123 9.1456 12.1492C9.3768 12.386 9.6616 12.5036 10 12.502ZM8.8 24.7961L6.04 27.6237C5.66 28.013 5.2248 28.1003 4.7344 27.8856C4.244 27.6708 3.9992 27.2864 4 26.7324V7.58438C4 6.9082 4.2352 6.32956 4.7056 5.84845C5.176 5.36735 5.7408 5.12638 6.4 5.12556H17.2C17.54 5.12556 17.8252 5.24359 18.0556 5.47963C18.286 5.71568 18.4008 6.00746 18.4 6.35497C18.3992 6.70248 18.284 6.99467 18.0544 7.23154C17.8248 7.4684 17.54 7.58602 17.2 7.58438H6.4V23.7203L7.78 22.3373H25.6V13.7314C25.6 13.3831 25.7152 13.0913 25.9456 12.8561C26.176 12.6208 26.4608 12.5028 26.8 12.502C27.1392 12.5012 27.4244 12.6192 27.6556 12.8561C27.8868 13.0929 28.0016 13.3847 28 13.7314V22.3373C28 23.0134 27.7652 23.5925 27.2956 24.0744C26.826 24.5563 26.2608 24.7969 25.6 24.7961H8.8ZM24.4 10.0432C23.4 10.0432 22.55 9.68461 21.85 8.96746C21.15 8.25031 20.8 7.37948 20.8 6.35497C20.8 5.33046 21.15 4.45963 21.85 3.74248C22.55 3.02533 23.4 2.66675 24.4 2.66675C25.4 2.66675 26.25 3.02533 26.95 3.74248C27.65 4.45963 28 5.33046 28 6.35497C28 7.37948 27.65 8.25031 26.95 8.96746C26.25 9.68461 25.4 10.0432 24.4 10.0432Z" fill="#1A1A1A"/>
</g>
</svg>
