<svg width="26" height="26" viewBox="0 0 26 26" fill="none" xmlns="http://www.w3.org/2000/svg">
<path d="M8.84824 16.0311C8.96177 15.0818 9.25649 14.2004 9.73239 13.3868C10.2083 12.5732 10.835 11.8939 11.6125 11.3488C12.5443 10.6964 13.5733 10.3079 14.6996 10.1834C15.8258 10.0589 16.914 10.2238 17.964 10.6782C18.1565 10.757 18.352 10.7691 18.5505 10.7143C18.749 10.6596 18.896 10.5374 18.9916 10.3478C19.0871 10.1582 19.1097 9.96693 19.0594 9.77388C19.0091 9.58084 18.8922 9.4414 18.7088 9.35557C17.4021 8.77512 16.0437 8.55123 14.6339 8.6839C13.224 8.81656 11.9301 9.2953 10.7521 10.1201C9.82034 10.7725 9.06635 11.5752 8.49015 12.528C7.91396 13.4808 7.54483 14.5175 7.38278 15.6381L6.32883 14.1329C6.20695 13.9588 6.04587 13.8543 5.84561 13.8194C5.64534 13.7844 5.45823 13.8275 5.28429 13.9487C5.11034 14.0699 5.00583 14.231 4.97075 14.432C4.93568 14.6329 4.97879 14.82 5.10011 14.9933L7.25102 18.0651C7.3729 18.2392 7.53412 18.3439 7.73467 18.3792C7.93523 18.4146 8.12219 18.3713 8.29556 18.2493L11.3674 16.0984C11.5415 15.9765 11.6462 15.8153 11.6815 15.6147C11.7169 15.4142 11.6736 15.2272 11.5516 15.0538C11.4296 14.8804 11.2685 14.7759 11.0683 14.7403C10.8682 14.7046 10.6811 14.7477 10.507 14.8696L8.84824 16.0311Z" fill="black"/>
</svg>
